<?xml version="1.0" encoding="utf-8"?>
<!-- Generator: Adobe Illustrator 17.1.0, SVG Export Plug-In . SVG Version: 6.00 Build 0)  -->
<!DOCTYPE svg PUBLIC "-//W3C//DTD SVG 1.1//EN" "http://www.w3.org/Graphics/SVG/1.1/DTD/svg11.dtd">
<svg version="1.1" id="Layer_1" xmlns="http://www.w3.org/2000/svg" xmlns:xlink="http://www.w3.org/1999/xlink" x="0px" y="0px"
	 viewBox="0 0 457.211 91.416" enable-background="new 0 0 457.211 91.416" xml:space="preserve">
<text transform="matrix(1 0 0 1 4.1975 63.9017)" fill="#FFFFFF" font-family="'Adelle-Regular'" font-size="72">Study</text>
<g>
	<path fill="#0000FF" d="M159.179,81.667c0,1.105-0.895,2-2,2h-149c-1.105,0-2-0.895-2-2v-9c0-1.105,0.895-2,2-2h149
		c1.105,0,2,0.895,2,2V81.667z"/>
	<path fill="none" stroke="#FFFFFF" stroke-width="3" stroke-miterlimit="10" d="M159.679,81.167c0,1.105-0.895,2-2,2h-149
		c-1.105,0-2-0.895-2-2v-9c0-1.105,0.895-2,2-2h149c1.105,0,2,0.895,2,2V81.167z"/>
</g>
<line fill="none" stroke="#FFFFFF" stroke-width="3" stroke-miterlimit="10" x1="21.679" y1="69.667" x2="21.679" y2="84.667"/>
<line fill="none" stroke="#FFFFFF" stroke-width="3" stroke-miterlimit="10" x1="144.679" y1="69.667" x2="144.679" y2="84.667"/>
<line fill="none" stroke="#FFFFFF" stroke-width="11" stroke-miterlimit="10" x1="83.679" y1="69.667" x2="83.679" y2="84.667"/>
<text transform="matrix(1 0 0 1 198.3265 79.2444)" fill="#FFFFFF" font-family="'Adelle-Regular'" font-size="72">BUDDY</text>
</svg>
