<?xml version="1.0" encoding="utf-8"?>
<!-- Generator: Adobe Illustrator 17.1.0, SVG Export Plug-In . SVG Version: 6.00 Build 0)  -->
<!DOCTYPE svg PUBLIC "-//W3C//DTD SVG 1.1//EN" "http://www.w3.org/Graphics/SVG/1.1/DTD/svg11.dtd">
<svg version="1.1" id="Layer_1" xmlns="http://www.w3.org/2000/svg" xmlns:xlink="http://www.w3.org/1999/xlink" x="0px" y="0px"
	 viewBox="0 0 457.211 91.416" enable-background="new 0 0 457.211 91.416" xml:space="preserve">
<g>
	<path fill="#FFFFFF" d="M35.88,25.163l-1.08-6.121c-0.216-1.008-0.433-1.296-0.792-1.512c-1.009-0.576-3.097-1.224-6.841-1.224
		c-7.417,0-11.017,3.24-11.017,8.353c0,5.976,5.185,7.705,10.944,9.504c7.201,2.232,15.338,4.608,15.338,15.41
		c0,11.161-8.785,15.193-19.082,15.193c-6.553,0-12.889-1.656-15.121-2.736V50.221h4.824l1.368,6.336
		c0.216,0.936,0.432,1.224,1.44,1.584c1.08,0.36,3.888,1.224,8.064,1.224c7.345,0,11.737-2.808,11.737-9.073
		c0-6.336-4.969-8.208-10.585-9.865c-7.272-2.16-15.697-4.032-15.697-14.905c0-10.297,8.064-14.689,18.073-14.689
		c6.049,0,10.945,1.584,13.394,2.52v12.241L35.88,25.163z"/>
	<path fill="#FFFFFF" d="M73.896,62.534c-2.881,1.152-6.337,2.232-10.009,2.232c-6.913,0-10.009-3.24-10.009-9.721V32.579
		c0-0.432,0-0.72-0.576-0.72h-5.257v-4.176c5.616-0.72,7.201-2.952,8.137-10.297h4.248v8.785c0,0.432,0,0.72,0.576,0.72h10.585
		v4.968H60.43v21.242c0,4.536,1.08,6.264,5.185,6.264c2.232,0,4.753-0.648,6.697-1.44L73.896,62.534z"/>
	<path fill="#FFFFFF" d="M105.936,63.902l-0.576-4.896l-0.144-0.072c-3.312,2.808-7.561,5.833-13.897,5.833
		c-7.921,0-10.369-4.825-10.369-13.105v-18.29c0-1.152-0.071-1.44-1.151-1.656l-3.745-0.936l0.576-3.888h10.873v23.258
		c0,6.265,1.08,9.289,5.616,9.289c4.896,0,9.073-3.384,11.594-6.265V33.299c0-1.152-0.072-1.368-1.152-1.584l-3.601-0.936
		l0.576-3.888h10.729v31.107c0,1.08,0.216,1.44,1.008,1.512l3.816,0.504v3.888H105.936z"/>
	<path fill="#FFFFFF" d="M148.992,63.902l-0.576-4.752l-0.288-0.072c-3.312,3.168-7.057,5.688-12.673,5.688
		c-8.209,0-13.609-5.329-13.609-18.578c0-14.186,6.409-20.018,15.05-20.018c4.32,0,8.208,1.44,11.017,3.457V16.162
		c0-0.72-0.288-1.224-0.936-1.44l-4.321-1.368l0.648-3.816h11.017v48.532c0,1.152,0.072,1.296,1.152,1.44l3.673,0.504v3.888H148.992
		z M147.768,35.459c-2.16-1.8-6.049-3.888-9.865-3.888c-6.769,0-9.433,5.904-9.433,14.473c0,10.009,3.384,13.249,8.425,13.249
		c4.248,0,7.704-2.808,10.873-5.977V35.459z"/>
	<path fill="#FFFFFF" d="M166.774,79.167v-3.96l5.185-0.648c0.864-0.072,1.152-0.504,1.584-1.512l4.177-9.577l-12.962-30.674
		c-0.359-0.864-0.647-1.008-1.512-1.224l-2.952-0.72l0.864-3.96h14.905v3.96l-4.753,0.576l9.577,24.194l10.009-24.194L186,30.851
		l0.792-3.96h14.258v3.96l-2.448,0.36c-0.864,0.144-1.44,0.432-1.801,1.224l-17.497,42.124l6.984,0.72v3.888H166.774z"/>
</g>
<g>
	<path fill="#0000FF" d="M159.179,81.667c0,1.105-0.895,2-2,2h-149c-1.105,0-2-0.895-2-2v-9c0-1.105,0.895-2,2-2h149
		c1.105,0,2,0.895,2,2V81.667z"/>
	<path fill="none" stroke="#FFFFFF" stroke-width="3" stroke-miterlimit="10" d="M159.679,81.167c0,1.105-0.895,2-2,2h-149
		c-1.105,0-2-0.895-2-2v-9c0-1.105,0.895-2,2-2h149c1.105,0,2,0.895,2,2V81.167z"/>
</g>
<line fill="none" stroke="#FFFFFF" stroke-width="3" stroke-miterlimit="10" x1="21.679" y1="69.667" x2="21.679" y2="84.667"/>
<line fill="none" stroke="#FFFFFF" stroke-width="3" stroke-miterlimit="10" x1="144.679" y1="69.667" x2="144.679" y2="84.667"/>
<line fill="none" stroke="#FFFFFF" stroke-width="11" stroke-miterlimit="10" x1="83.679" y1="69.667" x2="83.679" y2="84.667"/>
<g>
	<path fill="#FFFFFF" d="M202.719,79.245v-3.888l4.536-0.504c1.008-0.144,1.152-0.36,1.152-1.44V33.017
		c0-1.08-0.145-1.368-1.152-1.44l-4.536-0.504v-3.96h21.458c12.312,0,15.697,5.616,15.697,12.745c0,6.84-4.393,10.657-8.785,12.097
		v0.216c8.209,0.936,12.169,5.76,12.169,12.961c0,10.657-7.992,14.113-19.298,14.113H202.719z M221.296,50.082
		c5.688,0,11.953-1.656,11.953-9.361c0-6.625-3.672-8.353-10.873-8.353h-7.416v17.713H221.296z M223.168,73.988
		c7.561,0,13.178-1.296,13.178-9.289c0-6.984-5.112-9.577-11.737-9.577h-9.648v18.866H223.168z"/>
	<path fill="#FFFFFF" d="M286.026,32.945c0-1.08-0.144-1.368-1.151-1.44L280.337,31v-3.888h17.857V31l-4.824,0.576
		c-1.08,0.144-1.152,0.288-1.152,1.368v28.875c0,12.457-6.912,18.29-19.226,18.29c-13.393,0-18.649-6.337-18.649-18.434v-28.73
		c0-1.08-0.144-1.368-1.152-1.44L248.655,31v-3.888h18.29V31l-4.824,0.576c-1.08,0.144-1.152,0.288-1.152,1.368v27.938
		c0,9.721,4.104,13.609,12.457,13.609c8.496,0,12.601-3.384,12.601-13.393V32.945z"/>
	<path fill="#FFFFFF" d="M306.039,79.245v-3.888l4.536-0.504c1.008-0.144,1.152-0.36,1.152-1.44V33.017
		c0-1.08-0.145-1.368-1.152-1.44l-4.536-0.504v-3.96h21.529c18.074,0,25.851,9.721,25.851,25.274
		c0,15.985-8.425,26.858-27.074,26.858H306.039z M326.272,73.988c13.753,0,20.306-7.777,20.306-20.666
		c0-16.057-7.2-21.026-19.873-21.026h-8.354v41.692H326.272z"/>
	<path fill="#FFFFFF" d="M361.262,79.245v-3.888l4.536-0.504c1.008-0.144,1.152-0.36,1.152-1.44V33.017
		c0-1.08-0.145-1.368-1.152-1.44l-4.536-0.504v-3.96h21.529c18.074,0,25.851,9.721,25.851,25.274
		c0,15.985-8.425,26.858-27.074,26.858H361.262z M381.496,73.988c13.753,0,20.306-7.777,20.306-20.666
		c0-16.057-7.2-21.026-19.873-21.026h-8.354v41.692H381.496z"/>
	<path fill="#FFFFFF" d="M421.887,79.245v-3.888l6.841-0.504c1.008-0.072,1.151-0.36,1.151-1.44V59.083l-14.401-26.066
		c-0.432-0.792-0.863-1.008-1.728-1.224L410.51,31l0.72-3.888h16.13V31l-5.401,0.648l11.449,21.53l11.089-21.53L439.168,31
		l0.72-3.888h15.05V31l-3.024,0.792c-0.72,0.216-1.368,0.576-1.8,1.368l-13.609,25.706V73.34c0,1.152,0.072,1.296,1.152,1.44
		l7.2,0.576v3.888H421.887z"/>
</g>
</svg>
